<svg width="174" height="28" viewBox="0 0 174 28" fill="none" xmlns="http://www.w3.org/2000/svg">
<g clip-path="url(#clip0)">
<path d="M0.799253 6.31165C0.229451 6.59543 0 7.05138 0 7.67381V20.3722C0 20.9946 0.229451 21.3938 0.799253 21.7344L11.6293 27.8376C11.8776 27.9599 12.1512 28.0235 12.4286 28.0235C12.7059 28.0235 12.9795 27.9599 13.2278 27.8376L24.0579 21.7344C24.6315 21.3938 24.8571 20.9946 24.8571 20.3722V7.67381C24.8571 6.93787 24.5111 6.53868 24.0579 6.31165L13.2278 0.208407C12.9795 0.0861106 12.7059 0.0224609 12.4286 0.0224609C12.1512 0.0224609 11.8776 0.0861106 11.6293 0.208407L0.799253 6.31165Z" fill="#14BF96"/>
<path d="M21.9374 11.3608C16.7977 11.3873 12.637 15.6573 12.637 20.9244V21.1476H12.2374V20.9244C12.2374 15.6573 8.06904 11.3873 2.91979 11.3608C2.88524 11.6952 2.868 12.0312 2.86817 12.3673C2.86817 16.486 5.41698 19.9973 8.98685 21.3444C10.0878 21.7506 11.2536 21.9576 12.4286 21.9554C13.6033 21.9545 14.7686 21.7476 15.8704 21.3444C19.4383 19.9973 21.989 16.486 21.989 12.3673C21.9892 12.0312 21.972 11.6952 21.9374 11.3608Z" fill="white"/>
<path d="M14.5924 11.0867C15.7871 9.90459 15.7871 7.98799 14.5924 6.80586C13.3976 5.62373 11.4606 5.62373 10.2658 6.80586C9.07107 7.98799 9.07107 9.90459 10.2658 11.0867C11.4606 12.2688 13.3976 12.2688 14.5924 11.0867Z" fill="white"/>
<path d="M31.754 6.49824C31.7529 6.42551 31.7667 6.35331 31.7946 6.28601C31.8225 6.2187 31.8638 6.15767 31.9162 6.10659C31.9685 6.0555 32.0308 6.01543 32.0992 5.98878C32.1676 5.96212 32.2407 5.94944 32.3142 5.95149H34.3372C34.4833 5.95296 34.623 6.01104 34.7263 6.11326C34.8296 6.21548 34.8883 6.35369 34.8898 6.49824V12.6412L40.6834 6.17851C40.7336 6.10963 40.7993 6.05326 40.8753 6.01385C40.9513 5.97445 41.0355 5.95309 41.1213 5.95149H43.4158C43.5132 5.94802 43.6094 5.97338 43.6921 6.02433C43.7748 6.07528 43.8403 6.14949 43.8801 6.23747C43.9199 6.32545 43.9323 6.42319 43.9157 6.51818C43.8991 6.61317 43.8542 6.70109 43.7867 6.77067L37.779 13.4604L44.217 21.0809C44.2729 21.1558 44.3066 21.2446 44.3143 21.3374C44.3219 21.4301 44.3032 21.5232 44.2603 21.606C44.2173 21.6888 44.1519 21.7581 44.0712 21.8061C43.9906 21.8541 43.898 21.8788 43.8039 21.8774H41.301C41.2244 21.8843 41.1473 21.8736 41.0756 21.846C41.004 21.8184 40.9397 21.7748 40.888 21.7185L34.8821 14.3931V21.3307C34.8806 21.4752 34.8219 21.6134 34.7186 21.7157C34.6153 21.8179 34.4756 21.876 34.3295 21.8774H32.3142C32.2414 21.8784 32.169 21.865 32.1015 21.8379C32.034 21.8108 31.9727 21.7705 31.9212 21.7196C31.8696 21.6686 31.829 21.6079 31.8016 21.5411C31.7742 21.4743 31.7606 21.4028 31.7616 21.3307L31.754 6.49824Z" fill="#0A2A66"/>
<path d="M45.8896 6.45301C45.8982 6.32282 45.9543 6.20015 46.0476 6.1079C46.1408 6.01565 46.2648 5.96011 46.3964 5.95166H48.2587C48.3913 5.95683 48.5169 6.01136 48.6105 6.10434C48.7042 6.19731 48.7588 6.32186 48.7635 6.45301V12.0265C49.2932 11.5706 50.2129 11.1392 51.4768 11.1392C54.8573 11.1392 55.7771 13.4606 55.7771 16.0998V21.3781C55.7723 21.5096 55.7174 21.6344 55.6234 21.7274C55.5294 21.8205 55.4032 21.8748 55.2704 21.8795H53.408C53.2742 21.878 53.1464 21.8247 53.052 21.7309C52.9576 21.6371 52.9042 21.5105 52.9032 21.3781V16.0808C52.9032 14.626 52.2359 13.7387 50.972 13.7387C49.7081 13.7387 49.0389 14.5125 48.7635 15.5814V21.3781C48.7635 21.6752 48.6258 21.8795 48.2128 21.8795H46.3964C46.2635 21.8748 46.1373 21.8205 46.0433 21.7274C45.9493 21.6344 45.8944 21.5096 45.8896 21.3781V6.45301Z" fill="#0A2A66"/>
<path d="M61.6231 15.235C62.3165 15.2429 63.0058 15.3422 63.6728 15.5302C63.7187 14.1869 63.3286 13.5513 62.2024 13.5513C61.1943 13.5652 60.1911 13.6921 59.2119 13.9296C58.8677 14.0432 58.6612 13.7934 58.6153 13.4756L58.3821 12.2969C58.3573 12.2331 58.3468 12.1647 58.3511 12.0964C58.3555 12.0281 58.3746 11.9616 58.4073 11.9013C58.4399 11.8409 58.4853 11.7883 58.5404 11.7469C58.5954 11.7055 58.6588 11.6763 58.7262 11.6613C59.907 11.3216 61.1296 11.1453 62.3592 11.1372C65.6709 11.1372 66.3593 12.8399 66.3593 15.7099V21.378C66.3583 21.5104 66.3049 21.637 66.2105 21.7308C66.1161 21.8245 65.9883 21.8779 65.8545 21.8794H65.0725C64.8813 21.8794 64.7512 21.8113 64.6117 21.5161L64.3134 20.8104C63.8738 21.2387 63.3527 21.5762 62.7803 21.8036C62.2078 22.0309 61.5955 22.1435 60.9787 22.1348C58.8639 22.1348 57.3916 20.7934 57.3916 18.5402C57.3916 16.6672 58.9327 15.235 61.6231 15.235ZM61.6919 20.0121C62.6346 20.0121 63.4625 19.2837 63.604 18.8977V17.3502C63.1074 17.1451 62.576 17.0353 62.038 17.0267C60.8181 17.0267 60.1507 17.5942 60.1507 18.5269C60.1507 19.4199 60.7033 20.0121 61.6919 20.0121Z" fill="#0A2A66"/>
<path d="M68.751 11.8677C68.7515 11.7352 68.8048 11.6083 68.8993 11.5144C68.9938 11.4205 69.1219 11.3673 69.2558 11.3664H70.1296C70.2296 11.3568 70.3296 11.3842 70.4104 11.4432C70.4912 11.5023 70.5472 11.5887 70.5675 11.6861L70.9499 12.6642C71.367 12.1689 71.8927 11.7741 72.4871 11.5099C73.0815 11.2457 73.7289 11.119 74.3802 11.1393C77.7607 11.1393 78.6346 13.3907 78.6346 15.9391V21.3782C78.6294 21.5096 78.5743 21.6341 78.4804 21.7271C78.3865 21.82 78.2606 21.8745 78.1279 21.8796H76.2655C76.1317 21.8781 76.0039 21.8248 75.9095 21.731C75.8151 21.6372 75.7617 21.5106 75.7607 21.3782V15.9391C75.7607 14.575 75.2081 13.7331 73.9213 13.7331C73.4104 13.7206 72.9095 13.8741 72.4951 14.17C72.0808 14.4658 71.7758 14.8879 71.6268 15.3715V21.3782C71.6268 21.7661 71.4661 21.8796 70.9594 21.8796H69.2577C69.1251 21.8744 68.9995 21.8199 68.9059 21.7269C68.8123 21.6339 68.7576 21.5094 68.7529 21.3782L68.751 11.8677Z" fill="#0A2A66"/>
<path d="M84.0728 21.2856L91.224 5.97451C91.2557 5.90018 91.309 5.8368 91.377 5.79236C91.4451 5.74792 91.5249 5.72441 91.6064 5.72478H91.8378C91.9202 5.71996 92.0021 5.74169 92.071 5.7867C92.1399 5.83172 92.1923 5.8976 92.2202 5.97451L99.2949 21.2856C99.3297 21.3486 99.3467 21.4197 99.3441 21.4915C99.3416 21.5632 99.3197 21.633 99.2806 21.6935C99.2415 21.754 99.1868 21.803 99.122 21.8354C99.0573 21.8678 98.9849 21.8824 98.9125 21.8778H96.9259C96.5817 21.8778 96.4211 21.7415 96.2605 21.4218L95.1323 18.9623H88.2584L87.1322 21.4218C87.0833 21.5574 86.9925 21.6744 86.8728 21.7562C86.753 21.8381 86.6103 21.8806 86.4648 21.8778H84.4648C84.3918 21.8836 84.3186 21.8699 84.2528 21.8381C84.187 21.8063 84.1311 21.7575 84.091 21.6969C84.0509 21.6363 84.028 21.5661 84.0248 21.4937C84.0216 21.4213 84.0382 21.3494 84.0728 21.2856ZM94.0061 16.4405L91.7116 11.4345H91.6428L89.3846 16.4405H94.0061Z" fill="#0A2A66"/>
<path d="M105.236 11.1392C106.892 11.1392 108.178 11.8448 109.19 12.9138C109.419 13.1408 109.305 13.4378 109.075 13.6705L108.11 14.7167C107.88 14.9665 107.628 14.8529 107.419 14.6486C106.915 14.17 106.293 13.7386 105.305 13.7386C103.649 13.7386 102.5 15.0119 102.5 16.6275C102.5 18.2432 103.626 19.5392 105.282 19.5392C106.454 19.5392 107.075 18.9035 107.534 18.3794C107.617 18.2881 107.731 18.2305 107.854 18.2179C107.978 18.2053 108.101 18.2386 108.201 18.3113L109.236 19.1759C109.49 19.4029 109.605 19.6527 109.427 19.9327C108.53 21.3194 107.106 22.1386 105.22 22.1386C102.115 22.1386 99.6104 19.7965 99.6104 16.6332C99.6027 13.5286 102.085 11.1392 105.236 11.1392Z" fill="#0A2A66"/>
<path d="M115.073 15.235C115.765 15.2432 116.453 15.3425 117.119 15.5302C117.165 14.1869 116.775 13.5513 115.649 13.5513C114.641 13.5652 113.637 13.6921 112.658 13.9296C112.314 14.0432 112.108 13.7934 112.062 13.4756L111.83 12.2969C111.806 12.2329 111.796 12.1644 111.8 12.0962C111.805 12.0279 111.824 11.9614 111.857 11.9011C111.89 11.8409 111.935 11.7883 111.99 11.7469C112.046 11.7056 112.109 11.6763 112.176 11.6613C113.357 11.3216 114.58 11.1453 115.809 11.1372C119.121 11.1372 119.809 12.8399 119.809 15.7099V21.378C119.809 21.5104 119.755 21.637 119.661 21.7308C119.566 21.8245 119.438 21.8779 119.305 21.8794H118.523C118.331 21.8794 118.2 21.8113 118.062 21.5161L117.764 20.8104C117.324 21.2387 116.803 21.5762 116.23 21.8036C115.658 22.0309 115.046 22.1435 114.429 22.1348C112.314 22.1348 110.842 20.7934 110.842 18.5402C110.842 16.6672 112.383 15.235 115.073 15.235ZM115.142 20.0121C116.085 20.0121 116.913 19.2837 117.054 18.8977V17.3502C116.558 17.1454 116.027 17.0356 115.49 17.0267C114.272 17.0267 113.605 17.5942 113.605 18.5269C113.601 19.4199 114.152 20.0121 115.142 20.0121Z" fill="#0A2A66"/>
<path d="M126.878 11.1395C127.747 11.1437 128.61 11.2894 129.431 11.5709V6.46278C129.439 6.33259 129.495 6.20992 129.589 6.11767C129.682 6.02542 129.806 5.96988 129.937 5.96143H131.8C131.932 5.96659 132.058 6.02113 132.152 6.1141C132.245 6.20708 132.3 6.33162 132.305 6.46278V21.3785C132.304 21.5108 132.25 21.6375 132.156 21.7312C132.061 21.825 131.934 21.8783 131.8 21.8798H130.949C130.695 21.8798 130.534 21.6755 130.442 21.3785L130.167 20.5593C129.736 21.0533 129.204 21.4498 128.604 21.7217C128.005 21.9937 127.354 22.1347 126.695 22.1352C123.798 22.1352 121.608 19.8082 121.608 16.6222C121.608 13.5517 123.712 11.1395 126.878 11.1395ZM129.431 14.3255C128.765 13.9303 128.001 13.7254 127.224 13.7333C125.477 13.7333 124.58 15.1428 124.58 16.6222C124.58 18.1017 125.431 19.5339 127.085 19.5339C128.465 19.5339 129.201 18.6693 129.431 18.079V14.3255Z" fill="#0A2A66"/>
<path d="M139.502 11.1392C142.261 11.1392 144.376 13.1635 144.376 16.007C144.376 16.1678 144.353 16.5311 144.33 16.69C144.317 16.8159 144.259 16.9332 144.166 17.0208C144.074 17.1084 143.953 17.1608 143.825 17.1686H137.018C137.041 18.4646 138.122 19.6016 139.663 19.6016C140.49 19.6163 141.296 19.3431 141.94 18.8297C142.193 18.6235 142.468 18.6008 142.628 18.8297L143.525 20.0121C143.574 20.0567 143.612 20.1115 143.636 20.1725C143.661 20.2334 143.671 20.299 143.667 20.3644C143.662 20.4299 143.643 20.4935 143.611 20.5507C143.578 20.6079 143.533 20.6572 143.479 20.6951C142.38 21.6319 140.976 22.1433 139.525 22.1348C136.351 22.1348 134.145 19.6319 134.145 16.6294C134.145 13.6648 136.351 11.1392 139.502 11.1392ZM141.479 15.3013C141.433 14.2759 140.605 13.4813 139.433 13.4813C138.145 13.4813 137.319 14.2532 137.179 15.3013H141.479Z" fill="#0A2A66"/>
<path d="M146.084 11.8677C146.084 11.7353 146.138 11.6083 146.232 11.5145C146.327 11.4206 146.455 11.3674 146.589 11.3664H147.417C147.513 11.3567 147.61 11.3812 147.691 11.4356C147.771 11.49 147.829 11.5707 147.855 11.6634L148.237 12.6642C148.623 12.1789 149.117 11.7887 149.681 11.5241C150.245 11.2595 150.864 11.1278 151.488 11.1394C153.029 11.1394 153.782 11.6861 154.66 12.7323C155.121 12.2537 156.178 11.1394 158.086 11.1394C161.49 11.1394 162.293 13.2772 162.293 16.0072V21.3783C162.292 21.4457 162.277 21.5122 162.249 21.574C162.222 21.6357 162.183 21.6915 162.133 21.7381C162.084 21.7847 162.026 21.8212 161.963 21.8455C161.899 21.8698 161.831 21.8814 161.763 21.8796H159.924C159.79 21.8782 159.662 21.8248 159.568 21.731C159.473 21.6373 159.42 21.5106 159.419 21.3783V15.9391C159.419 14.575 158.912 13.7332 157.579 13.7332C156.038 13.7332 155.6 14.8248 155.6 14.8248C155.6 14.8248 155.646 15.3488 155.646 15.8256V21.3783C155.642 21.5094 155.587 21.634 155.493 21.727C155.4 21.8199 155.274 21.8745 155.142 21.8796H153.256C153.189 21.8812 153.123 21.8693 153.06 21.8446C152.998 21.82 152.942 21.7831 152.894 21.7363C152.847 21.6894 152.81 21.6335 152.785 21.572C152.76 21.5104 152.748 21.4446 152.75 21.3783V15.9391C152.75 14.575 152.367 13.7332 151.002 13.7332C149.692 13.7332 149.208 14.6432 148.956 15.3715V21.3783C148.951 21.5094 148.897 21.634 148.803 21.727C148.709 21.8199 148.584 21.8745 148.451 21.8796H146.587C146.455 21.874 146.329 21.8193 146.236 21.7263C146.143 21.6334 146.089 21.5091 146.084 21.3783V11.8677Z" fill="#0A2A66"/>
<path d="M163.392 12.0495C163.254 11.6863 163.438 11.3665 163.851 11.3665H166.059C166.156 11.3573 166.252 11.3821 166.332 11.4364C166.412 11.4907 166.47 11.5712 166.495 11.6636L168.407 17.9428H168.455L170.864 11.6636C171.025 11.3892 171.209 11.3665 171.532 11.3665H173.486C173.571 11.3573 173.657 11.3713 173.734 11.4072C173.812 11.4431 173.878 11.4993 173.925 11.5698C173.973 11.6403 174 11.7224 174.003 11.807C174.006 11.8916 173.986 11.9755 173.945 12.0495L167.69 26.9746C167.65 27.0643 167.586 27.1413 167.505 27.1974C167.424 27.2534 167.328 27.2863 167.229 27.2925H165.025C164.938 27.3001 164.85 27.2841 164.772 27.2462C164.693 27.2082 164.627 27.1498 164.579 27.0772C164.532 27.0046 164.505 26.9205 164.503 26.8341C164.5 26.7477 164.521 26.6622 164.564 26.5868L166.702 21.263L163.392 12.0495Z" fill="#0A2A66"/>
</g>
<defs>
<clipPath id="clip0">
<rect width="174" height="28" fill="white"/>
</clipPath>
</defs>
</svg>
